HIERARCHY
ROOT Hips
{
	OFFSET 0.000000 0.000000 0.000000
	CHANNELS 6 Xposition Yposition Zposition Zrotation Yrotation Xrotation 
		JOINT LeftUpLeg
		{
			OFFSET 1.363060 -1.794630 0.839290
			CHANNELS 3 Zrotation Yrotation Xrotation
			JOINT LeftLeg
			{
				OFFSET 2.448110 -6.726130 0.000000
				CHANNELS 3 Zrotation Yrotation Xrotation
				JOINT LeftFoot
				{
					OFFSET 2.562200 -7.039590 0.000000
					CHANNELS 3 Zrotation Yrotation Xrotation
					JOINT LeftToeBase
					{
						OFFSET 0.157640 -0.433110 2.322550
						CHANNELS 3 Zrotation Yrotation Xrotation
						End Site
						{
							OFFSET 0.000000 0.000000 0.000000
						}
					}
				}
			}
		}
		JOINT RightUpLeg
		{
			OFFSET -1.305520 -1.794630 0.839290
			CHANNELS 3 Zrotation Yrotation Xrotation
			JOINT RightLeg
			{
				OFFSET -2.542530 -6.985550 0.000000
				CHANNELS 3 Zrotation Yrotation Xrotation
				JOINT RightFoot
				{
					OFFSET -2.568260 -7.056230 0.000000
					CHANNELS 3 Zrotation Yrotation Xrotation
					JOINT RightToeBase
					{
						OFFSET -0.164730 -0.452590 2.363150
						CHANNELS 3 Zrotation Yrotation Xrotation
						End Site
						{
							OFFSET 0.000000 0.000000 0.000000
						}
					}
				}
			}
		}
		JOINT Spine
		{
			OFFSET -0.000000 1.017795 0.000000
			CHANNELS 3 Zrotation Yrotation Xrotation
			JOINT Spine1
			{
				OFFSET 0.056720 2.048850 -0.042750
				CHANNELS 3 Zrotation Yrotation Xrotation
            JOINT Spine2
            {
                OFFSET -0.000000 1.017795 0.000000
                CHANNELS 3 Zrotation Yrotation Xrotation
					JOINT Neck1
					{
						OFFSET -0.054170 1.746240 0.172020
						CHANNELS 3 Zrotation Yrotation Xrotation
						JOINT Head
						{
							OFFSET 0.104070 1.761360 -0.123970
							CHANNELS 3 Zrotation Yrotation Xrotation
							End Site
							{
								OFFSET 0.000000 0.000000 0.000000
							}
						}
					}
				JOINT LeftShoulder
				{
					OFFSET 0.000000 0.000000 0.000000
					CHANNELS 3 Zrotation Yrotation Xrotation
					JOINT LeftArm
					{
						OFFSET 3.362410 1.200890 -0.311210
						CHANNELS 3 Zrotation Yrotation Xrotation
						JOINT LeftForeArm
						{
							OFFSET 4.983000 -0.000000 -0.000000
							CHANNELS 3 Zrotation Yrotation Xrotation
							JOINT LeftHand
							{
								OFFSET 3.483560 -0.000000 -0.000000
								CHANNELS 3 Zrotation Yrotation Xrotation
									End Site
									{
										OFFSET 0.000000 0.000000 0.000000
									}
							}
						}
					}
				}
				JOINT RightShoulder
				{
					OFFSET 0.000000 0.000000 0.000000
					CHANNELS 3 Zrotation Yrotation Xrotation
					JOINT RightArm
					{
						OFFSET -3.136600 1.374050 -0.404650
						CHANNELS 3 Zrotation Yrotation Xrotation
						JOINT RightForeArm
						{
							OFFSET -5.241900 -0.000000 -0.000000
							CHANNELS 3 Zrotation Yrotation Xrotation
							JOINT RightHand
							{
								OFFSET -3.444170 -0.000000 -0.000000
								CHANNELS 3 Zrotation Yrotation Xrotation
									End Site
									{
										OFFSET 0.000000 0.000000 0.000000
									}
							}
						}
					}
				}
			}
            }
		}
}
MOTION
Frames: 4
Frame Time: 0.008333
27.276810    16.748859    4.611907    -137.771294    -88.189358    155.327251    -15.359472    10.991494    1.0560209999999999    -1.344900    0.123552    13.280671    1.065676    7.413531    -2.839568    0.552899    0.000000    -70.299200    16.290886    5.988048    -36.870855999999996    2.858722    0.305585    8.104852    -0.637748    -4.858463    8.257244    -2.454200    0.000000    -36.913100    0.000000    0.000000    0.000000    4.863842    -6.9728069999999995    -7.223382    -7.511939    -3.841353    1.209312    5.259748    -8.779482    -7.24157    0.000000    0.000000    0.000000    -7.686860    4.493407    1.824572    -60.585664    -12.755427    14.144811    -3.058666    -38.716580    -0.010944    5.387116    1.429629    0.064676    19.185043    -8.011825    1.051422    64.148534    -7.007561    -10.839300    4.185505    14.296013    0.008936    0.518835    4.038394    0.014538
27.127623    16.775398    4.576145    -130.148294    -88.022901    147.590555    -14.849088    10.927528    0.6834830000000001    -1.157098    0.302030    14.910503    1.083803    7.706970    -1.347279    0.775601    -0.000000    -72.790700    16.55563    6.315011    -36.350117    2.847132    0.230772    8.654743    -0.670874    -5.032335    8.251805    -2.502600    -0.000000    -36.149100    0.000000    0.000000    0.000000    5.3687640000000005    -6.939094    -7.220495    -7.480608    -3.840178    1.195190    5.177079    -8.609744000000001    -7.221725    0.000000    0.000000    0.000000    -7.810007    4.635679    1.801339    -61.117568    -12.260884    13.869660    -3.052814    -37.970136    -0.010770    5.480949    1.422473    0.065531    19.080955    -7.832020    1.046191    64.007750    -6.792443    -11.151012    4.212926    13.808280    0.009068    0.399815    4.083593    0.010437
26.979501    16.803756    4.538281    -125.162273    -87.808256    142.480863    -14.367099    10.913428    0.18560899999999997    -0.965924    0.488041    16.719702    1.108458    7.975606    0.280962    1.016200    0.000001    -74.867100    16.826919    6.649760000000001    -35.796432    2.844328    0.166222    9.190883    -0.698092    -5.142060    8.069900    -2.512500    -0.000000    -35.314600    0.000000    0.000000    0.000000    5.814847    -6.888997    -7.199393000000001    -7.451591    -3.828612    1.178874    5.112112    -8.421908    -7.192965    0.000000    0.000000    0.000000    -7.868077    4.777404    1.778618    -61.680517    -11.735891    13.558445    -3.043171    -37.185836    -0.010622    5.581650    1.436266    0.067481    18.994585    -7.630412    1.040718    63.895822    -6.527911    -11.426340    4.237756    13.298868    0.009205    0.287403    4.136228    0.006436
26.832828    16.833486    4.498446    -121.693024    -87.579749    138.878838    -13.905043000000001    10.936776    -0.436367    -0.770487    0.676312    18.702117    1.142789    8.219731    2.030667    1.269500    -0.000000    -76.348100    17.111642    6.967554000000001    -35.192845999999996    2.850226    0.114887    9.675123    -0.721780    -5.205233    7.732907    -2.491099    -0.000000    -34.419200    0.000000    0.000000    0.000000    6.209593    -6.835739    -7.16066    -7.424605    -3.813627    1.162741    5.064601    -8.228088    -7.156781    0.000000    0.000000    0.000000    -7.865842    4.907503    1.757034    -62.264373    -11.182274    13.225023    -3.030184    -36.376371    -0.010491    5.679347    1.474252    0.070630    18.925323    -7.423249    1.035199    63.811951    -6.204679    -11.640366    4.259013    12.773780    0.009333    0.172930    4.190654    0.002235
